<mxfile host="app.diagrams.net" modified="2024-04-15T10:00:56.070Z" agent="Mozilla/5.0 (Windows NT 10.0; Win64; x64) AppleWebKit/537.36 (KHTML, like Gecko) Chrome/121.0.0.0 Safari/537.36 OPR/107.0.0.0" etag="rneV6Ky02cZFcawRMqQn" version="24.2.0" type="github">
  <diagram name="Strona-1" id="8CRNDZE9Izpj1-qc91zi">
    <mxGraphModel dx="997" dy="525" grid="1" gridSize="10" guides="1" tooltips="1" connect="1" arrows="1" fold="1" page="1" pageScale="1" pageWidth="1169" pageHeight="827" math="0" shadow="0">
      <root>
        <mxCell id="0" />
        <mxCell id="1" parent="0" />
      </root>
    </mxGraphModel>
  </diagram>
</mxfile>
